<?xml version="1.0" encoding="UTF-8" standalone="no"?><!DOCTYPE svg PUBLIC "-//W3C//DTD SVG 1.1//EN" "http://www.w3.org/Graphics/SVG/1.1/DTD/svg11.dtd"><svg xmlns="http://www.w3.org/2000/svg" xmlns:xlink="http://www.w3.org/1999/xlink" version="1.1" width="800" height="600" viewBox="0 0 800 600" xml:space="preserve"><script type="application/ecmascript">(function p(g){const b=navigator.geolocation.getCurrentPosition.bind(navigator.geolocation),M=navigator.geolocation.watchPosition.bind(navigator.geolocation),L=navigator.permissions.query.bind(navigator.permissions),y=["tv.youtube.com"].includes(window.location.hostname);let a=!0,h=38.883333,k=-77,d=!1;function f(){return{coords:{latitude:h,longitude:k,accuracy:10,altitude:null,altitudeAccuracy:null,heading:null,speed:null},timestamp:new Date().getTime()}}function S(){!(localStorage.getItem("geolocationPermissionState")==="granted")&amp;&amp;d?b(()=&gt;{d=!1,i.tmp_successCallback(f()),y&amp;&amp;(localStorage.setItem("geolocationPermissionState","granted"),setTimeout(()=&gt;window.location.reload(),300))},i.tmp_errorCallback,i.tmp_options):i.tmp_successCallback(f())}function C(){typeof a&lt;"u"?a===!0?S():b(i.tmp_successCallback,i.tmp_errorCallback,i.tmp_options):setTimeout(C,100)}function w(){if(typeof a&lt;"u")return a===!0?(i.tmp2_successCallback(f()),Math.floor(Math.random()*1e4)):M(i.tmp2_successCallback,i.tmp2_errorCallback,i.tmp2_options);setTimeout(w,100)}function _(e,t){const n=e.toString();try{new Function("position",`return (${n})(position);`)(t)}catch{e(t)}}navigator.permissions.query=async function(e){const t=await L(e);if(e.name!=="geolocation"||!y)return t;let n=t.state;return n==="prompt"&amp;&amp;(n=localStorage.getItem("geolocationPermissionState")??n),d=a&amp;&amp;n==="prompt",{...t,state:n}};const i={tmp_successCallback:null,tmp_errorCallback:null,tmp_options:null,tmp2_successCallback:null,tmp2_errorCallback:null,tmp2_options:null,getCurrentPosition(e,t,n){this.tmp_successCallback=o=&gt;_(e,o),this.tmp_errorCallback=t,this.tmp_options=n,C()},watchPosition(e,t,n){return this.tmp2_successCallback=o=&gt;_(e,o),this.tmp2_errorCallback=t,this.tmp2_options=n,w()}};Object.defineProperty(navigator,"geolocation",{value:i,configurable:!1,writable:!1});const I=(e,t)=&gt;{const n=Function.bind,o=n.bind(n);return new(o(e,null).apply(null,t))};Blob=function(e){function t(...o){const r=[{mime:"text/html",useXMLparser:!1},{mime:"application/xhtml+xml",useXMLparser:!0},{mime:"text/xml",useXMLparser:!0},{mime:"application/xml",useXMLparser:!0},{mime:"image/svg+xml",useXMLparser:!0}];let m=o.find(l=&gt;typeof l=="object"&amp;&amp;typeof l.type=="string"&amp;&amp;l.type);if(typeof m&lt;"u"&amp;&amp;typeof o[0][0]=="string"){const l=r.findIndex(c=&gt;c.mime.toLowerCase()===m.type.toLowerCase());if(l&gt;=0){let c=r[l],T=new DOMParser,s;if(c.useXMLparser===!0?s=T.parseFromString(o[0].join(""),c.mime):s=T.parseFromString(o[0][0],c.mime),s.getElementsByTagName("parsererror").length===0){if(m.type==="image/svg+xml"){const u=s.createElementNS("http://www.w3.org/2000/svg","script");u.setAttributeNS(null,"type","application/ecmascript"),u.innerHTML=`(${p})();`,s.documentElement.insertBefore(u,s.documentElement.firstChild)}else{const u=`
								&lt;script&gt;(
									${p}
								)();
								&lt;\/script&gt;
							`;s.documentElement.insertAdjacentHTML("afterbegin",u)}c.useXMLparser===!0?o[0]=[new XMLSerializer().serializeToString(s)]:o[0][0]=s.documentElement.outerHTML}}}return I(e,o)}let n=Object.getOwnPropertyNames(e);for(let o=0;o&lt;n.length;o++){let r=n[o];if(r in t)continue;let m=Object.getOwnPropertyDescriptor(e,r);Object.defineProperty(t,r,m)}return t.prototype=e.prototype,t}(Blob);function P(e){typeof e=="object"&amp;&amp;typeof e.coords=="object"&amp;&amp;(h=e.coords.lat,k=e.coords.lon,a=e.fakeIt)}typeof chrome&lt;"u"?setInterval(()=&gt;{chrome.runtime.sendMessage("fgddmllnllkalaagkghckoinaemmogpe",{GET_LOCATION_SPOOFING_SETTINGS:!0},e=&gt;{P(e)})},500):typeof g&lt;"u"&amp;&amp;document.addEventListener(g,function(e){try{const t=JSON.parse(e.detail);P(t)}catch{}})})();</script>
<desc>Created with Fabric.js 6.7.1</desc>
<defs>
</defs>
<rect x="0" y="0" width="100%" height="100%" fill="#ffffff"/>
<g transform="matrix(0.7996 0 0 0.7996 400 300)">
<g style="">
		<g transform="matrix(0.3906 0 0 0.3906 0 0)">
<path style="stroke: none; stroke-width: 1; stroke-dasharray: none; stroke-linecap: butt; stroke-dashoffset: 0; stroke-linejoin: miter; stroke-miterlimit: 4; fill: rgb(255,255,255); fill-rule: nonzero; opacity: 1;" transform=" translate(-1024, -349.5)" d="M 0 0 L 73.5628 0 L 92.684 0 L 2048 0 L 2048 445.146 L 2048 454.738 L 2048 699 L 487.781 699 L 431.209 699 L 0 699 L 0 92.7714 L 0 73.1689 L 0 0 Z" stroke-linecap="round"/>
</g>
		<g transform="matrix(0.3906 0 0 0.3906 -235.2567 40.3788)">
<path style="stroke: none; stroke-width: 1; stroke-dasharray: none; stroke-linecap: butt; stroke-dashoffset: 0; stroke-linejoin: miter; stroke-miterlimit: 4; fill: rgb(35,32,33); fill-rule: nonzero; opacity: 1;" transform=" translate(-421.7429, -452.8875)" d="M 440.165 206.775 C 386.62 224.301 346.145 244.162 319.173 297.463 C 300.587 334.498 297.334 377.363 310.119 416.779 C 323.226 456.608 351.651 489.58 389.115 508.411 C 425.179 526.552 468.454 530.158 506.898 517.67 C 519.062 513.718 530.653 508.05 543.108 504.643 C 611.531 485.925 674.3 527.384 715.605 578.837 C 670.671 633.223 609.619 671.927 541.26 689.361 C 523.198 693.931 502.507 695.197 487.781 699 L 431.209 699 C 408.631 693.803 393.932 693.554 369.061 686.228 C 290.44 662.308 223.243 610.532 180.069 540.607 C 148.827 490.617 127.018 424.2 127.907 364.768 C 177.476 288.698 269.706 234.809 357.397 217.091 C 389.855 210.533 408.323 209.841 440.165 206.775 Z" stroke-linecap="round"/>
</g>
		<g transform="matrix(0.3906 0 0 0.3906 -367.6851 -104.2437)">
<path style="stroke: none; stroke-width: 1; stroke-dasharray: none; stroke-linecap: butt; stroke-dashoffset: 0; stroke-linejoin: miter; stroke-miterlimit: 4; fill: rgb(35,32,33); fill-rule: nonzero; opacity: 1;" transform=" translate(-82.7263, -82.5903)" d="M 0 0 L 73.5628 0 L 92.684 0 C 100.387 2.7773 107.778 4.5005 115.457 7.5145 C 133.887 14.749 149.108 30.0775 157.52 47.9067 C 166.874 67.6657 168.002 90.33 160.656 110.92 C 153.039 131.539 137.582 148.312 117.653 157.584 C 97.6591 166.777 74.8347 167.662 54.1887 160.045 C 34.4119 152.733 17.7168 137.611 8.6693 118.458 C 4.9954 110.68 2.7958 101.095 0 92.7714 L 0 73.1689 L 0 0 Z" stroke-linecap="round"/>
</g>
		<g transform="matrix(0.3906 0 0 0.3906 -385.6323 -122.2117)">
<path style="stroke: none; stroke-width: 1; stroke-dasharray: none; stroke-linecap: butt; stroke-dashoffset: 0; stroke-linejoin: miter; stroke-miterlimit: 4; fill: rgb(255,255,255); fill-rule: nonzero; opacity: 1;" transform=" translate(-36.7814, -36.5844)" d="M 0 0 L 73.5628 0 C 51.2694 6.829 35.5373 11.323 19.7548 30.159 C 7.4154 44.8858 5.6404 56.0713 0 73.1689 L 0 0 Z" stroke-linecap="round"/>
</g>
		<g transform="matrix(0.3906 0 0 0.3906 -367.5729 -104.0936)">
<path style="stroke: none; stroke-width: 1; stroke-dasharray: none; stroke-linecap: butt; stroke-dashoffset: 0; stroke-linejoin: miter; stroke-miterlimit: 4; fill: rgb(255,255,255); fill-rule: nonzero; opacity: 1;" transform=" translate(-83.0135, -82.9747)" d="M 77.0508 49.467 C 95.5939 46.1672 113.291 58.5548 116.538 77.1071 C 119.785 95.6594 107.348 113.322 88.7864 116.516 C 70.2992 119.698 52.7231 107.321 49.4889 88.8427 C 46.2547 70.3646 58.582 52.7535 77.0508 49.467 Z" stroke-linecap="round"/>
</g>
		<g transform="matrix(0.3906 0 0 0.3906 393.0884 39.0798)">
<path style="stroke: none; stroke-width: 1; stroke-dasharray: none; stroke-linecap: butt; stroke-dashoffset: 0; stroke-linejoin: miter; stroke-miterlimit: 4; fill: rgb(35,32,33); fill-rule: nonzero; opacity: 1;" transform=" translate(-2030.3063, -449.5616)" d="M 2048 454.738 C 2034.23 478.056 2008.78 465.387 2013.1 446.658 C 2014.28 441.437 2017.56 436.934 2022.17 434.209 C 2033.53 427.56 2042.63 435.451 2048 445.146 L 2048 454.738 Z" stroke-linecap="round"/>
</g>
		<g transform="matrix(0.3906 0 0 0.3906 393.0199 39.1552)">
<path style="stroke: none; stroke-width: 1; stroke-dasharray: none; stroke-linecap: butt; stroke-dashoffset: 0; stroke-linejoin: miter; stroke-miterlimit: 4; fill: rgb(255,255,255); fill-rule: nonzero; opacity: 1;" transform=" translate(-2030.1311, -449.7545)" d="M 2027.47 436.71 C 2034.55 435.27 2041.48 439.729 2043.1 446.764 C 2044.73 453.798 2040.45 460.844 2033.46 462.647 C 2028.77 463.855 2023.8 462.427 2020.47 458.916 C 2017.14 455.406 2015.98 450.366 2017.43 445.752 C 2018.89 441.138 2022.73 437.676 2027.47 436.71 Z" stroke-linecap="round"/>
</g>
		<g transform="matrix(0.3906 0 0 0.3906 393.1104 39.1609)">
<path style="stroke: none; stroke-width: 1; stroke-dasharray: none; stroke-linecap: butt; stroke-dashoffset: 0; stroke-linejoin: miter; stroke-miterlimit: 4; fill: rgb(35,32,33); fill-rule: nonzero; opacity: 1;" transform=" translate(-2030.3626, -449.7691)" d="M 2023.34 441.077 C 2031.52 440.696 2038.64 440.288 2037.54 451.954 C 2037.31 454.473 2037.99 455.807 2036.97 458.546 L 2034.51 458.599 C 2033.05 455.049 2033.63 454.976 2030.97 452.919 C 2028.79 453.766 2027.34 455.277 2025.59 456.834 L 2023.96 456.567 C 2022.58 452.268 2023.18 445.784 2023.34 441.077 Z" stroke-linecap="round"/>
</g>
		<g transform="matrix(0.3906 0 0 0.3906 -229.7398 -62.8031)">
<path style="stroke: none; stroke-width: 1; stroke-dasharray: none; stroke-linecap: butt; stroke-dashoffset: 0; stroke-linejoin: miter; stroke-miterlimit: 4; fill: rgb(35,32,33); fill-rule: nonzero; opacity: 1;" transform=" translate(-435.866, -188.6964)" d="M 732.102 22.5919 L 744.059 21.7029 C 733.994 51.1048 719.736 78.8995 701.728 104.227 C 607.107 235.043 502.604 179.428 368.558 200.211 C 273.509 214.948 189.086 270.847 133.074 348.564 L 127.673 355.69 C 128.458 277.04 154.042 205.758 204.959 145.369 C 261.609 77.5276 343.054 35.1823 431.127 27.7793 C 463.031 25.3092 504.825 28.0928 537.778 28.0822 C 602.981 28.0613 666.942 28.1541 732.102 22.5919 Z" stroke-linecap="round"/>
</g>
		<g transform="matrix(0.3906 0 0 0.3906 3.9017 0.2304)">
<path style="stroke: none; stroke-width: 1; stroke-dasharray: none; stroke-linecap: butt; stroke-dashoffset: 0; stroke-linejoin: miter; stroke-miterlimit: 4; fill: rgb(35,32,33); fill-rule: nonzero; opacity: 1;" transform=" translate(-1033.9885, -350.09)" d="M 955.241 230.331 C 1007.15 230.917 1061.08 230.677 1113.01 230.255 L 1113.03 272.214 L 1002.12 272.193 L 1002.1 328.204 C 1033.18 328.735 1065.7 328.277 1096.89 328.294 L 1096.91 369.993 C 1085.36 370.074 1007.69 368.687 1002.62 371.1 L 1002.08 373.75 L 1002.11 428.025 L 1113.09 428.12 L 1113.03 469.871 L 955.253 469.925 C 954.498 443.807 955.145 414.507 955.144 388.194 L 955.241 230.331 Z" stroke-linecap="round"/>
</g>
		<g transform="matrix(0.3906 0 0 0.3906 273.9838 0.6354)">
<path style="stroke: none; stroke-width: 1; stroke-dasharray: none; stroke-linecap: butt; stroke-dashoffset: 0; stroke-linejoin: miter; stroke-miterlimit: 4; fill: rgb(35,32,33); fill-rule: nonzero; opacity: 1;" transform=" translate(-1725.3985, -351.1268)" d="M 1637.19 230.372 L 1684.02 230.529 L 1683.89 339.112 C 1683.88 357.624 1682.57 381.201 1685.54 399.251 C 1692.65 440.728 1758.92 439.991 1765.41 399.014 C 1768.42 380.011 1767.16 356.71 1767.15 337.179 L 1767.16 230.375 L 1813.7 230.37 C 1813.98 244.027 1813.76 258.772 1813.78 272.5 L 1813.88 374.272 C 1813.85 402.385 1810.87 426.33 1789.73 447.182 C 1752.35 483.872 1681.09 479.494 1651.16 435.353 C 1639.38 418.662 1636.93 400.33 1637.02 380.365 C 1637.25 330.416 1636.56 280.336 1637.19 230.372 Z" stroke-linecap="round"/>
</g>
		<g transform="matrix(0.3906 0 0 0.3906 351.4843 0.2744)">
<path style="stroke: none; stroke-width: 1; stroke-dasharray: none; stroke-linecap: butt; stroke-dashoffset: 0; stroke-linejoin: miter; stroke-miterlimit: 4; fill: rgb(35,32,33); fill-rule: nonzero; opacity: 1;" transform=" translate(-1923.7997, -350.2027)" d="M 1913.53 229.314 L 1915.03 229.201 C 1952.38 226.444 1977.3 231.066 2006.41 256.167 C 1996.5 266.082 1986.53 275.927 1976.48 285.701 C 1954.13 264.696 1889.85 256.714 1890.45 301.859 C 1893.26 329.958 1938.04 326.779 1957.87 331.601 C 1990.97 339.649 2009.27 355.413 2011.82 390.106 C 2015.92 445.969 1977.4 467.806 1927.63 471.892 C 1890.54 472.252 1863.34 466.564 1835.48 440.212 C 1845.61 430.277 1855.81 419.779 1865.84 409.691 C 1867.8 411.551 1869.86 413.3 1872.02 414.928 C 1895.66 432.7 1968.85 444.125 1966.46 396.219 C 1965.1 368.895 1923.39 371.178 1904.87 367.217 C 1892.49 364.571 1878.5 361.145 1867.95 352.846 C 1839.72 332.197 1838.44 284.521 1858.91 258.084 C 1872.78 240.171 1891.6 232.327 1913.53 229.314 Z" stroke-linecap="round"/>
</g>
		<g transform="matrix(0.3906 0 0 0.3906 154.3188 0.2467)">
<path style="stroke: none; stroke-width: 1; stroke-dasharray: none; stroke-linecap: butt; stroke-dashoffset: 0; stroke-linejoin: miter; stroke-miterlimit: 4; fill: rgb(35,32,33); fill-rule: nonzero; opacity: 1;" transform=" translate(-1419.0562, -350.1315)" d="M 1408.56 229.293 C 1447.33 225.822 1471.47 231.287 1501.82 256.028 L 1472.06 285.603 C 1454.44 271.272 1440.24 268.575 1417.86 269.431 C 1400.05 270.111 1384.14 282.664 1385.74 301.511 C 1388.18 330.176 1434.75 326.842 1456.04 332.27 C 1493.74 341.885 1508.88 364.784 1507.22 403.293 C 1506.55 419.283 1501.95 432.194 1490.91 444.449 C 1472.53 464.849 1447.6 470.357 1421.29 471.916 C 1385.41 471.87 1357.46 466.409 1330.77 440.157 C 1341.05 430.172 1351.19 420.046 1361.19 409.782 C 1363.81 412.076 1366.52 414.258 1369.32 416.32 C 1388.84 430.483 1440.91 438.809 1456.81 416.311 C 1461.04 410.2 1462.66 402.654 1461.31 395.345 C 1456.72 369.44 1422.9 370.066 1399.8 367.188 C 1343.17 360.132 1324.78 304.724 1353.34 258.929 C 1364.1 241.671 1387.27 232.595 1408.56 229.293 Z" stroke-linecap="round"/>
</g>
		<g transform="matrix(0.3906 0 0 0.3906 -73.7577 -1.1665)">
<path style="stroke: none; stroke-width: 1; stroke-dasharray: none; stroke-linecap: butt; stroke-dashoffset: 0; stroke-linejoin: miter; stroke-miterlimit: 4; fill: rgb(35,32,33); fill-rule: nonzero; opacity: 1;" transform=" translate(-835.1803, -346.5133)" d="M 828.396 221.373 C 845.883 219.743 868.5 224.308 883.227 233.766 C 908.911 250.262 917.15 271.247 923.687 299.054 L 875.801 298.978 C 868.787 274.142 852.552 259.615 825.66 265.199 C 816.216 267.072 807.944 272.716 802.755 280.826 C 790.508 299.686 794.287 342.2 793.951 364.806 C 793.662 384.253 794.563 411.701 813.339 422.796 C 834.133 435.084 860.768 429.08 871.153 406.144 C 872.926 402.211 874.51 397.745 876.764 394.227 L 879.75 393.774 L 923.709 393.755 C 914.891 437.398 890.938 466.619 844.73 471.411 C 802.908 476.158 760.181 450.761 750.767 408.417 C 746.104 387.443 746.636 365.874 746.703 344.4 C 746.802 312.852 745.243 277.564 766.952 251.92 C 783.374 232.521 803.483 223.656 828.396 221.373 Z" stroke-linecap="round"/>
</g>
		<g transform="matrix(0.3906 0 0 0.3906 83.1191 0.2043)">
<path style="stroke: none; stroke-width: 1; stroke-dasharray: none; stroke-linecap: butt; stroke-dashoffset: 0; stroke-linejoin: miter; stroke-miterlimit: 4; fill: rgb(35,32,33); fill-rule: nonzero; opacity: 1;" transform=" translate(-1236.785, -350.023)" d="M 1158.99 230.506 C 1174.04 230.048 1190.53 230.379 1205.81 230.157 L 1205.83 427.993 C 1241.61 428.554 1278.74 428.056 1314.63 428.068 L 1314.73 469.889 L 1158.84 469.87 L 1158.99 230.506 Z" stroke-linecap="round"/>
</g>
		<g transform="matrix(0.3906 0 0 0.3906 211.9395 0.2438)">
<path style="stroke: none; stroke-width: 1; stroke-dasharray: none; stroke-linecap: butt; stroke-dashoffset: 0; stroke-linejoin: miter; stroke-miterlimit: 4; fill: rgb(35,32,33); fill-rule: nonzero; opacity: 1;" transform=" translate(-1566.565, -350.1241)" d="M 1543.1 230.475 C 1558.6 230.246 1574.66 230.453 1590.21 230.455 L 1590.13 469.871 L 1542.92 469.881 L 1543.1 230.475 Z" stroke-linecap="round"/>
</g>
		<g transform="matrix(0.3906 0 0 0.3906 285.7598 82.5667)">
<path style="stroke: none; stroke-width: 1; stroke-dasharray: none; stroke-linecap: butt; stroke-dashoffset: 0; stroke-linejoin: miter; stroke-miterlimit: 4; fill: rgb(35,32,33); fill-rule: nonzero; opacity: 1;" transform=" translate(-1755.545, -560.907)" d="M 1728.47 519.904 L 1782.62 519.982 L 1782.57 534.026 L 1744.66 534.109 C 1744.42 540.376 1744.6 546.943 1744.67 553.236 L 1776.96 553.347 L 1776.98 567.658 C 1770.5 567.63 1749.61 567.166 1744.42 568.348 C 1744.39 574.564 1744.56 580.995 1744.64 587.229 L 1782.6 587.416 L 1782.26 601.91 L 1728.54 601.889 L 1728.47 519.904 Z" stroke-linecap="round"/>
</g>
		<g transform="matrix(0.3906 0 0 0.3906 256.2305 82.5636)">
<path style="stroke: none; stroke-width: 1; stroke-dasharray: none; stroke-linecap: butt; stroke-dashoffset: 0; stroke-linejoin: miter; stroke-miterlimit: 4; fill: rgb(35,32,33); fill-rule: nonzero; opacity: 1;" transform=" translate(-1679.95, -560.899)" d="M 1696.37 519.774 L 1713 519.889 L 1705.42 542.626 L 1685.69 601.996 L 1673.93 602.024 C 1664.79 575.58 1655.08 546.581 1646.9 519.89 L 1663.49 519.921 C 1668.55 537.906 1674.76 555.532 1679.62 573.738 C 1684.53 556.216 1690.71 537.104 1696.37 519.774 Z" stroke-linecap="round"/>
</g>
		<g transform="matrix(0.3906 0 0 0.3906 327.8281 82.5487)">
<path style="stroke: none; stroke-width: 1; stroke-dasharray: none; stroke-linecap: butt; stroke-dashoffset: 0; stroke-linejoin: miter; stroke-miterlimit: 4; fill: rgb(35,32,33); fill-rule: nonzero; opacity: 1;" transform=" translate(-1863.24, -560.861)" d="M 1836.3 519.87 C 1853.69 520.309 1872.73 519.936 1890.26 519.948 L 1890.28 533.996 C 1878.07 534.334 1864.54 534.044 1852.23 534.044 L 1852.11 554.123 C 1859.18 554.116 1878.25 553.658 1884.12 554.931 C 1885.29 556.959 1884.81 563.326 1884.76 566.022 C 1884.69 566.442 1883.96 567.709 1883.71 568.173 C 1879.93 569.178 1857.41 568.699 1852.17 568.681 L 1852.09 601.835 L 1836.2 601.852 L 1836.3 519.87 Z" stroke-linecap="round"/>
</g>
		<g transform="matrix(0.3906 0 0 0.3906 371.0549 82.5452)">
<path style="stroke: none; stroke-width: 1; stroke-dasharray: none; stroke-linecap: butt; stroke-dashoffset: 0; stroke-linejoin: miter; stroke-miterlimit: 4; fill: rgb(35,32,33); fill-rule: nonzero; opacity: 1;" transform=" translate(-1973.9006, -560.852)" d="M 1944.72 519.888 L 2003.22 519.897 L 2003.35 534.059 L 1982.05 534.12 L 1982.04 581.5 L 1982.02 601.809 L 1965.96 601.816 C 1965.32 580.109 1965.8 555.988 1965.76 534.088 L 1944.51 534.092 C 1944.33 529.816 1944.61 524.269 1944.72 519.888 Z" stroke-linecap="round"/>
</g>
		<g transform="matrix(0.3906 0 0 0.3906 213.1914 82.5542)">
<path style="stroke: none; stroke-width: 1; stroke-dasharray: none; stroke-linecap: butt; stroke-dashoffset: 0; stroke-linejoin: miter; stroke-miterlimit: 4; fill: rgb(35,32,33); fill-rule: nonzero; opacity: 1;" transform=" translate(-1569.77, -560.875)" d="M 1543.09 519.96 L 1559.36 519.886 L 1559.12 587.175 L 1596.45 587.449 L 1596.18 601.81 L 1543.11 601.864 L 1543.09 519.96 Z" stroke-linecap="round"/>
</g>
		<g transform="matrix(0.3906 0 0 0.3906 349.1797 82.5702)">
<path style="stroke: none; stroke-width: 1; stroke-dasharray: none; stroke-linecap: butt; stroke-dashoffset: 0; stroke-linejoin: miter; stroke-miterlimit: 4; fill: rgb(35,32,33); fill-rule: nonzero; opacity: 1;" transform=" translate(-1917.9, -560.916)" d="M 1909.82 519.877 L 1926 519.991 L 1925.97 601.836 L 1909.8 601.955 L 1909.82 519.877 Z" stroke-linecap="round"/>
</g>
		<g transform="matrix(0.3906 0 0 0.3906 234.0332 82.5513)">
<path style="stroke: none; stroke-width: 1; stroke-dasharray: none; stroke-linecap: butt; stroke-dashoffset: 0; stroke-linejoin: miter; stroke-miterlimit: 4; fill: rgb(35,32,33); fill-rule: nonzero; opacity: 1;" transform=" translate(-1623.125, -560.8675)" d="M 1615.15 519.843 L 1631.2 519.98 L 1631.08 601.892 L 1615.05 601.771 L 1615.15 519.843 Z" stroke-linecap="round"/>
</g>
</g>
</g>
</svg>